<?xml version="1.0" standalone="no"?>
<!DOCTYPE svg PUBLIC "-//W3C//DTD SVG 20010904//EN"
 "http://www.w3.org/TR/2001/REC-SVG-20010904/DTD/svg10.dtd">
<svg version="1.0" xmlns="http://www.w3.org/2000/svg"
 width="709.000000pt" height="709.000000pt" viewBox="0 0 709.000000 709.000000"
 preserveAspectRatio="xMidYMid meet">
<metadata>
Created by potrace 1.11, written by Peter Selinger 2001-2013
</metadata>
<g transform="translate(0.000000,709.000000) scale(0.100000,-0.100000)"
fill="#000000" stroke="none">
<path d="M2880 6905 l0 -45 -230 0 -230 0 0 -45 0 -45 -95 0 -95 0 0 -50 0
-50 -140 0 -140 0 0 -45 0 -45 -45 0 -45 0 0 -45 0 -45 -95 0 -95 0 0 -50 0
-50 -45 0 -45 0 0 -45 0 -45 -95 0 -95 0 0 -45 0 -45 -45 0 -45 0 0 -50 0 -50
-50 0 -50 0 0 -45 0 -45 -45 0 -45 0 0 -45 0 -45 -45 0 -45 0 0 -50 0 -50 -50
0 -50 0 0 -90 0 -90 -45 0 -45 0 0 -50 0 -50 -45 0 -45 0 0 -45 0 -45 -50 0
-50 0 0 -95 0 -95 -45 0 -45 0 0 -90 0 -90 -45 0 -45 0 0 -140 0 -140 -50 0
-50 0 0 -140 0 -140 -45 0 -45 0 0 -235 0 -235 -45 0 -45 0 0 -280 0 -280 45
0 45 0 0 -325 0 -325 45 0 45 0 0 -50 0 -50 3080 0 3080 0 0 50 0 50 50 0 50
0 0 185 0 185 45 0 45 0 0 45 0 45 -45 0 -45 0 0 50 0 50 -140 0 -140 0 0 45
0 45 185 0 185 0 0 375 0 375 -45 0 -45 0 0 185 0 185 -50 0 -50 0 0 140 0
140 -45 0 -45 0 0 95 0 95 -45 0 -45 0 0 90 0 90 -50 0 -50 0 0 95 0 95 -45 0
-45 0 0 45 0 45 -45 0 -45 0 0 50 0 50 -50 0 -50 0 0 90 0 90 -45 0 -45 0 0
50 0 50 -45 0 -45 0 0 45 0 45 -50 0 -50 0 0 45 0 45 -90 0 -90 0 0 50 0 50
-50 0 -50 0 0 45 0 45 -45 0 -45 0 0 45 0 45 -45 0 -45 0 0 50 0 50 -95 0 -95
0 0 45 0 45 -95 0 -95 0 0 45 0 45 -90 0 -90 0 0 50 0 50 -140 0 -140 0 0 45
0 45 -190 0 -190 0 0 45 0 45 -560 0 -560 0 0 -45z m-2140 -3450 l0 -45 -50 0
-50 0 0 45 0 45 50 0 50 0 0 -45z m280 0 l0 -45 -50 0 -50 0 0 45 0 45 50 0
50 0 0 -45z m1020 0 l0 -45 -45 0 -45 0 0 45 0 45 45 0 45 0 0 -45z m380 0 l0
-45 -50 0 -50 0 0 45 0 45 50 0 50 0 0 -45z m930 0 l0 -45 -95 0 -95 0 0 45 0
45 95 0 95 0 0 -45z m840 0 l0 -45 -95 0 -95 0 0 45 0 45 95 0 95 0 0 -45z
m650 0 l0 -45 -45 0 -45 0 0 45 0 45 45 0 45 0 0 -45z m280 0 l0 -45 -90 0
-90 0 0 45 0 45 90 0 90 0 0 -45z m190 0 l0 -45 -45 0 -45 0 0 45 0 45 45 0
45 0 0 -45z m280 0 l0 -45 -45 0 -45 0 0 45 0 45 45 0 45 0 0 -45z m280 0 l0
-45 -45 0 -45 0 0 45 0 45 45 0 45 0 0 -45z m280 0 l0 -45 -45 0 -45 0 0 45 0
45 45 0 45 0 0 -45z"/>
<path d="M460 2475 l0 -185 45 0 45 0 0 -95 0 -95 45 0 45 0 0 -45 0 -45 2800
0 2800 0 0 45 0 45 50 0 50 0 0 95 0 95 45 0 45 0 0 140 0 140 -45 0 -45 0 0
45 0 45 -2940 0 -2940 0 0 -185z"/>
<path d="M1390 1775 l0 -45 -185 0 -185 0 0 -140 0 -140 45 0 45 0 0 -45 0
-45 45 0 45 0 0 -50 0 -50 2150 0 2150 0 0 50 0 50 140 0 140 0 0 45 0 45 45
0 45 0 0 140 0 140 -1165 0 -1165 0 0 45 0 45 -50 0 -50 0 0 -45 0 -45 -980 0
-980 0 0 45 0 45 -45 0 -45 0 0 -45z"/>
<path d="M2320 750 l0 -140 140 0 140 0 0 -45 0 -45 235 0 235 0 0 -50 0 -50
325 0 325 0 0 50 0 50 235 0 235 0 0 45 0 45 140 0 140 0 0 45 0 45 95 0 95 0
0 50 0 50 -95 0 -95 0 0 45 0 45 -1075 0 -1075 0 0 -140z"/>
</g>
</svg>
